<?xml version="1.0" encoding="UTF-8" standalone="no"?>
<!DOCTYPE svg PUBLIC "-//W3C//DTD SVG 1.1//EN" "http://www.w3.org/Graphics/SVG/1.1/DTD/svg11.dtd">
<svg width="100%" height="100%" viewBox="0 0 2250 2250" version="1.1" xmlns="http://www.w3.org/2000/svg" xmlns:xlink="http://www.w3.org/1999/xlink" xml:space="preserve" xmlns:serif="http://www.serif.com/" style="fill-rule:evenodd;clip-rule:evenodd;stroke-linejoin:round;stroke-miterlimit:2;">
    <path d="M1125,1735.77C1088.29,1775.41 1044.31,1811.19 993.056,1843.12C862.449,1924.47 712.105,1965.15 542.024,1965.15C379.674,1965.15 248.699,1921.34 149.099,1833.73C58.95,1739.86 29.366,1636.6 60.345,1523.95C79.277,1455.12 107.647,1408.18 145.455,1383.15C183.263,1358.11 225.36,1345.6 271.746,1345.6C302.67,1345.6 331.873,1351.86 359.354,1364.37C379.105,1376.89 384.678,1398.79 376.072,1430.08C367.467,1461.37 357.578,1483.28 346.405,1495.79C324.058,1520.83 296.563,1536.47 263.918,1542.73C237.283,1555.25 216.876,1566.2 202.698,1575.58C188.52,1584.97 178.85,1599.05 173.686,1617.83C158.197,1674.15 180.501,1733.6 240.6,1796.18C310.151,1852.51 410.639,1880.67 542.066,1880.67C673.492,1880.67 781.739,1852.51 866.807,1796.18C937.474,1740.24 988.934,1664.31 1021.19,1568.37C1015.77,1553.89 1010.98,1539.09 1006.82,1523.95C982.724,1436.34 982.689,1365.94 1006.72,1312.74C1007.88,1310.15 1009.12,1307.57 1010.43,1305C979.419,1268.6 926.493,1225.81 851.651,1176.63C792.399,1139.08 756.34,1101.53 743.473,1063.98C724.597,1020.18 724.625,963.854 743.557,895.015L795.189,707.271L887.96,707.271L841.491,876.24C822.559,945.079 834.989,998.273 878.779,1035.82L1086.16,1167.24C1099.93,1174.72 1112.88,1182.33 1125,1190.07C1137.12,1182.33 1150.07,1174.72 1163.84,1167.24L1371.22,1035.82C1415.01,998.273 1427.44,945.079 1408.51,876.24L1362.04,707.271L1454.81,707.271L1506.44,895.015C1525.38,963.854 1525.4,1020.18 1506.53,1063.98C1493.66,1101.53 1457.6,1139.08 1398.35,1176.63C1323.51,1225.81 1270.58,1268.6 1239.57,1305C1240.88,1307.57 1242.12,1310.15 1243.29,1312.74C1267.31,1365.94 1267.28,1436.34 1243.18,1523.95C1239.02,1539.09 1234.23,1553.89 1228.81,1568.37C1261.07,1664.31 1312.53,1740.24 1383.19,1796.18C1468.26,1852.51 1576.51,1880.67 1707.93,1880.67C1839.36,1880.67 1939.85,1852.51 2009.4,1796.18C2069.5,1733.6 2091.8,1674.15 2076.31,1617.83C2071.15,1599.05 2061.48,1584.97 2047.3,1575.58C2033.12,1566.2 2012.72,1555.25 1986.08,1542.73C1953.44,1536.47 1925.94,1520.83 1903.6,1495.79C1892.42,1483.28 1882.53,1461.37 1873.93,1430.08C1865.32,1398.79 1870.89,1376.89 1890.65,1364.37C1918.13,1351.86 1947.33,1345.6 1978.25,1345.6C2024.64,1345.6 2066.74,1358.11 2104.55,1383.15C2142.35,1408.18 2170.72,1455.12 2189.66,1523.95C2220.63,1636.6 2191.05,1739.86 2100.9,1833.73C2001.3,1921.34 1870.33,1965.15 1707.98,1965.15C1537.89,1965.15 1387.55,1924.47 1256.94,1843.12C1205.69,1811.19 1161.71,1775.41 1125,1735.77ZM1095.55,416.269C1085.22,453.818 1061.16,485.109 1023.35,510.141C985.541,535.173 943.444,547.69 897.058,547.69C850.673,547.69 815.46,535.173 791.421,510.141C767.381,485.109 760.525,453.818 770.851,416.269C781.178,378.721 805.245,347.43 843.053,322.398C880.861,297.365 922.958,284.849 969.344,284.849C1015.73,284.849 1050.94,297.365 1074.98,322.398C1099.02,347.43 1105.88,378.721 1095.55,416.269ZM1154.45,416.269C1144.12,378.721 1150.98,347.43 1175.02,322.398C1199.06,297.365 1234.27,284.849 1280.66,284.849C1327.04,284.849 1369.14,297.365 1406.95,322.398C1444.76,347.43 1468.82,378.721 1479.15,416.269C1489.48,453.818 1482.62,485.109 1458.58,510.141C1434.54,535.173 1399.33,547.69 1352.94,547.69C1306.56,547.69 1264.46,535.173 1226.65,510.141C1188.84,485.109 1164.78,453.818 1154.45,416.269Z" style="fill:white;"/>
    <path d="M965.35,1312.75C935.086,1282.33 890.136,1247.85 830.865,1208.89C762.886,1165.77 722.97,1120.99 707.673,1077.87C686.49,1027.67 684.966,963.333 706.553,884.838L758.186,697.095C762.767,680.437 777.913,668.894 795.189,668.894L887.96,668.894C899.936,668.894 911.225,674.484 918.484,684.009C925.743,693.534 928.139,705.901 924.964,717.448L878.495,886.417C864.579,937.017 870.666,976.921 901.842,1005L1105.61,1134.13C1112.25,1137.75 1118.72,1141.41 1125,1145.09C1131.28,1141.41 1137.74,1137.76 1144.38,1134.14L1348.17,1005C1379.33,976.918 1385.42,937.015 1371.51,886.417L1325.04,717.448C1321.86,705.901 1324.26,693.534 1331.52,684.009C1338.78,674.484 1350.06,668.894 1362.04,668.894L1454.81,668.894C1472.09,668.894 1487.23,680.437 1491.81,697.095L1543.45,884.838C1565.03,963.331 1563.51,1027.67 1542.34,1077.83C1527.03,1120.98 1487.13,1165.75 1419.15,1208.88C1359.86,1247.86 1314.91,1282.33 1284.65,1312.75C1305.37,1370.39 1304.92,1444.18 1280.18,1534.13C1276.98,1545.79 1273.42,1557.27 1269.53,1568.56C1299.18,1650.5 1344.4,1716.12 1405.75,1765.08C1485,1817.09 1585.87,1842.29 1707.93,1842.29C1827.47,1842.29 1919.59,1818.55 1983.41,1767.83C2030.45,1718.3 2051.59,1672.67 2039.31,1628C2036.86,1619.1 2032.84,1612.04 2026.12,1607.58C2013.81,1599.44 1996.36,1590.09 1973.85,1579.39C1934.93,1570.91 1901.96,1551.58 1874.97,1521.35C1861.09,1505.8 1847.62,1479.13 1836.92,1440.26C1822.55,1387.99 1837.11,1352.87 1870.1,1331.96C1871.59,1331.02 1873.14,1330.18 1874.74,1329.45C1907.21,1314.66 1941.71,1307.22 1978.25,1307.22C2032.43,1307.22 2081.57,1321.91 2125.73,1351.15C2169.71,1380.27 2204.63,1433.7 2226.66,1513.78C2261.28,1639.67 2229.33,1755.4 2128.58,1860.31C2127.84,1861.09 2127.06,1861.84 2126.25,1862.55C2020.14,1955.88 1880.93,2003.53 1707.98,2003.53C1530.21,2003.53 1373.16,1960.72 1236.65,1875.69C1194.86,1849.66 1157.66,1821.17 1125,1790.29C1092.34,1821.17 1055.14,1849.66 1013.35,1875.69C876.841,1960.72 719.786,2003.53 542.024,2003.53C369.066,2003.53 229.859,1955.88 123.751,1862.55C122.943,1861.84 122.164,1861.09 121.418,1860.31C20.666,1755.4 -11.282,1639.67 23.342,1513.78C45.366,1433.7 80.286,1380.27 124.269,1351.15C168.426,1321.91 217.571,1307.22 271.746,1307.22C308.288,1307.22 342.787,1314.66 375.261,1329.45C376.862,1330.18 378.411,1331.02 379.897,1331.96C412.892,1352.87 427.452,1387.99 413.076,1440.26C402.385,1479.13 388.915,1505.8 375.034,1521.35C348.043,1551.59 315.067,1570.91 276.15,1579.39C253.64,1590.09 236.189,1599.44 223.885,1607.58C217.158,1612.04 213.139,1619.1 210.69,1628C198.406,1672.67 219.549,1718.3 266.604,1767.84C330.413,1818.55 422.53,1842.29 542.066,1842.29C664.13,1842.29 764.998,1817.09 844.271,1765.07C905.599,1716.12 950.825,1650.49 980.475,1568.56C976.576,1557.27 973.022,1545.79 969.815,1534.13C945.077,1444.18 944.629,1370.39 965.35,1312.75ZM1125,1735.77C1161.71,1775.41 1205.69,1811.19 1256.94,1843.12C1387.55,1924.47 1537.89,1965.15 1707.98,1965.15C1870.33,1965.15 2001.3,1921.34 2100.9,1833.73C2191.05,1739.86 2220.63,1636.6 2189.66,1523.95C2170.72,1455.12 2142.35,1408.18 2104.55,1383.15C2066.74,1358.11 2024.64,1345.6 1978.25,1345.6C1947.33,1345.6 1918.13,1351.86 1890.65,1364.37C1870.89,1376.89 1865.32,1398.79 1873.93,1430.08C1882.53,1461.37 1892.42,1483.28 1903.6,1495.79C1925.94,1520.83 1953.44,1536.47 1986.08,1542.73C2012.72,1555.25 2033.12,1566.2 2047.3,1575.58C2061.48,1584.97 2071.15,1599.05 2076.31,1617.83C2091.8,1674.15 2069.5,1733.6 2009.4,1796.18C1939.85,1852.51 1839.36,1880.67 1707.93,1880.67C1576.51,1880.67 1468.26,1852.51 1383.19,1796.18C1312.53,1740.24 1261.07,1664.31 1228.81,1568.37C1234.23,1553.89 1239.02,1539.09 1243.18,1523.95C1267.28,1436.34 1267.31,1365.94 1243.29,1312.74C1242.12,1310.15 1240.88,1307.57 1239.57,1305C1270.58,1268.6 1323.51,1225.81 1398.35,1176.63C1457.6,1139.08 1493.66,1101.53 1506.53,1063.98C1525.4,1020.18 1525.38,963.854 1506.44,895.015L1454.81,707.271L1362.04,707.271L1408.51,876.24C1427.44,945.079 1415.01,998.273 1371.22,1035.82L1163.84,1167.24C1150.07,1174.72 1137.12,1182.33 1125,1190.07C1112.88,1182.33 1099.93,1174.72 1086.16,1167.24L878.779,1035.82C834.989,998.273 822.559,945.079 841.491,876.24L887.96,707.271L795.189,707.271L743.557,895.015C724.625,963.854 724.597,1020.18 743.473,1063.98C756.34,1101.53 792.399,1139.08 851.651,1176.63C926.493,1225.81 979.419,1268.6 1010.43,1305C1009.12,1307.57 1007.88,1310.15 1006.72,1312.74C982.689,1365.94 982.724,1436.34 1006.82,1523.95C1010.98,1539.09 1015.77,1553.89 1021.19,1568.37C988.934,1664.31 937.474,1740.24 866.807,1796.18C781.739,1852.51 673.492,1880.67 542.066,1880.67C410.639,1880.67 310.151,1852.51 240.6,1796.18C180.501,1733.6 158.197,1674.15 173.686,1617.83C178.85,1599.05 188.52,1584.97 202.698,1575.58C216.876,1566.2 237.283,1555.25 263.918,1542.73C296.563,1536.47 324.058,1520.83 346.405,1495.79C357.578,1483.28 367.467,1461.37 376.072,1430.08C384.678,1398.79 379.105,1376.89 359.354,1364.37C331.873,1351.86 302.67,1345.6 271.746,1345.6C225.36,1345.6 183.263,1358.11 145.455,1383.15C107.647,1408.18 79.277,1455.12 60.345,1523.95C29.366,1636.6 58.95,1739.86 149.099,1833.73C248.699,1921.34 379.674,1965.15 542.024,1965.15C712.105,1965.15 862.449,1924.47 993.056,1843.12C1044.31,1811.19 1088.29,1775.41 1125,1735.77ZM1125,326.343C1130.71,315.528 1138.18,305.356 1147.34,295.816C1177.82,264.075 1221.84,246.472 1280.66,246.472C1334.83,246.472 1383.98,261.163 1428.13,290.399C1474.54,321.126 1503.48,360.002 1516.15,406.093C1530.55,458.453 1519.78,501.816 1486.26,536.723C1455.78,568.464 1411.76,586.067 1352.94,586.067C1298.77,586.067 1249.62,571.376 1205.46,542.14C1166.67,516.452 1140.08,485.07 1125,448.538C1109.92,485.07 1083.33,516.452 1044.54,542.14C1000.38,571.376 951.234,586.067 897.058,586.067C838.242,586.067 794.222,568.464 763.74,536.723C730.218,501.816 719.448,458.453 733.848,406.093C746.524,360.002 775.457,321.126 821.867,290.399C866.024,261.163 915.168,246.472 969.344,246.472C1028.16,246.472 1072.18,264.075 1102.66,295.816C1111.82,305.356 1119.29,315.528 1125,326.343ZM1095.55,416.269C1105.88,378.721 1099.02,347.43 1074.98,322.398C1050.94,297.365 1015.73,284.849 969.344,284.849C922.958,284.849 880.861,297.365 843.053,322.398C805.245,347.43 781.178,378.721 770.851,416.269C760.525,453.818 767.381,485.109 791.421,510.141C815.46,535.173 850.673,547.69 897.058,547.69C943.444,547.69 985.541,535.173 1023.35,510.141C1061.16,485.109 1085.22,453.818 1095.55,416.269ZM1154.45,416.269C1164.78,453.818 1188.84,485.109 1226.65,510.141C1264.46,535.173 1306.56,547.69 1352.94,547.69C1399.33,547.69 1434.54,535.173 1458.58,510.141C1482.62,485.109 1489.48,453.818 1479.15,416.269C1468.82,378.721 1444.76,347.43 1406.95,322.398C1369.14,297.365 1327.04,284.849 1280.66,284.849C1234.27,284.849 1199.06,297.365 1175.02,322.398C1150.98,347.43 1144.12,378.721 1154.45,416.269Z"/>
</svg>
